<mxfile host="app.diagrams.net" agent="Mozilla/5.0 (Windows NT 10.0; Win64; x64) AppleWebKit/537.36 (KHTML, like Gecko) Chrome/128.0.0.0 Safari/537.36" version="24.7.13">
  <diagram name="Página-1" id="OnrjIm4vJwKwYv4AWJN2">
    <mxGraphModel dx="1652" dy="535" grid="1" gridSize="10" guides="1" tooltips="1" connect="1" arrows="1" fold="1" page="1" pageScale="1" pageWidth="827" pageHeight="1169" math="0" shadow="0">
      <root>
        <mxCell id="0" />
        <mxCell id="1" parent="0" />
        <mxCell id="N5kg-5Q6fotNva29TXmU-21" style="edgeStyle=orthogonalEdgeStyle;rounded=0;orthogonalLoop=1;jettySize=auto;html=1;exitX=0.5;exitY=1;exitDx=0;exitDy=0;entryX=0.5;entryY=0;entryDx=0;entryDy=0;" parent="1" source="N5kg-5Q6fotNva29TXmU-2" target="N5kg-5Q6fotNva29TXmU-6" edge="1">
          <mxGeometry relative="1" as="geometry" />
        </mxCell>
        <mxCell id="N5kg-5Q6fotNva29TXmU-2" value="INÍCIO" style="ellipse;whiteSpace=wrap;html=1;fillColor=#f8cecc;strokeColor=#b85450;" parent="1" vertex="1">
          <mxGeometry y="40" width="120" height="60" as="geometry" />
        </mxCell>
        <mxCell id="N5kg-5Q6fotNva29TXmU-3" value="&lt;div&gt;&amp;nbsp; &amp;nbsp; Stack stack;&lt;/div&gt;&lt;div&gt;&amp;nbsp; &amp;nbsp; char expression[EXPRESSION_CAPACITY];&lt;/div&gt;" style="rounded=1;whiteSpace=wrap;html=1;absoluteArcSize=1;arcSize=14;strokeWidth=2;align=left;fillColor=#d5e8d4;strokeColor=#82b366;" parent="1" vertex="1">
          <mxGeometry x="260" y="140" width="280" height="60" as="geometry" />
        </mxCell>
        <mxCell id="9kBR9iTMv46fXtZOBxt3-2" style="edgeStyle=orthogonalEdgeStyle;rounded=0;orthogonalLoop=1;jettySize=auto;html=1;exitX=0.5;exitY=1;exitDx=0;exitDy=0;entryX=0.5;entryY=0;entryDx=0;entryDy=0;" edge="1" parent="1" source="N5kg-5Q6fotNva29TXmU-6" target="9kBR9iTMv46fXtZOBxt3-1">
          <mxGeometry relative="1" as="geometry" />
        </mxCell>
        <mxCell id="N5kg-5Q6fotNva29TXmU-6" value="Preprocessamento:&lt;div&gt;&lt;br&gt;&lt;div&gt;&lt;div&gt;#include &amp;lt;ctype.h&amp;gt;&lt;/div&gt;&lt;div&gt;#include &amp;lt;stdio.h&amp;gt;&lt;/div&gt;&lt;div&gt;#include &amp;lt;stdlib.h&amp;gt;&lt;/div&gt;&lt;div&gt;#include &amp;lt;string.h&amp;gt;&lt;/div&gt;&lt;div&gt;&lt;br&gt;&lt;/div&gt;&lt;div&gt;#define STACK_CAPACITY 4&lt;/div&gt;&lt;div&gt;#define EXPRESSION_CAPACITY 200&lt;/div&gt;&lt;/div&gt;&lt;/div&gt;" style="rounded=1;whiteSpace=wrap;html=1;absoluteArcSize=1;arcSize=14;strokeWidth=2;align=left;fillColor=#d5e8d4;strokeColor=#82b366;" parent="1" vertex="1">
          <mxGeometry x="-60" y="140" width="240" height="140" as="geometry" />
        </mxCell>
        <mxCell id="N5kg-5Q6fotNva29TXmU-25" style="edgeStyle=orthogonalEdgeStyle;rounded=0;orthogonalLoop=1;jettySize=auto;html=1;exitX=0.5;exitY=1;exitDx=0;exitDy=0;entryX=0.5;entryY=0;entryDx=0;entryDy=0;" parent="1" source="N5kg-5Q6fotNva29TXmU-17" target="N5kg-5Q6fotNva29TXmU-18" edge="1">
          <mxGeometry relative="1" as="geometry" />
        </mxCell>
        <mxCell id="N5kg-5Q6fotNva29TXmU-17" value="main()" style="shape=process;whiteSpace=wrap;html=1;backgroundOutline=1;fillColor=#ffe6cc;strokeColor=#d79b00;" parent="1" vertex="1">
          <mxGeometry y="480" width="120" height="60" as="geometry" />
        </mxCell>
        <mxCell id="N5kg-5Q6fotNva29TXmU-18" value="FIM" style="ellipse;whiteSpace=wrap;html=1;fillColor=#f8cecc;strokeColor=#b85450;" parent="1" vertex="1">
          <mxGeometry y="580" width="120" height="60" as="geometry" />
        </mxCell>
        <mxCell id="N5kg-5Q6fotNva29TXmU-27" style="edgeStyle=orthogonalEdgeStyle;rounded=0;orthogonalLoop=1;jettySize=auto;html=1;exitX=0.5;exitY=1;exitDx=0;exitDy=0;entryX=0.5;entryY=0;entryDx=0;entryDy=0;" parent="1" source="N5kg-5Q6fotNva29TXmU-26" target="N5kg-5Q6fotNva29TXmU-3" edge="1">
          <mxGeometry relative="1" as="geometry" />
        </mxCell>
        <mxCell id="N5kg-5Q6fotNva29TXmU-26" value="int main()" style="ellipse;whiteSpace=wrap;html=1;fillColor=#f8cecc;strokeColor=#b85450;" parent="1" vertex="1">
          <mxGeometry x="340" y="40" width="120" height="60" as="geometry" />
        </mxCell>
        <mxCell id="9kBR9iTMv46fXtZOBxt3-4" style="edgeStyle=orthogonalEdgeStyle;rounded=0;orthogonalLoop=1;jettySize=auto;html=1;exitX=0.5;exitY=1;exitDx=0;exitDy=0;exitPerimeter=0;entryX=0.5;entryY=0;entryDx=0;entryDy=0;" edge="1" parent="1" source="N5kg-5Q6fotNva29TXmU-28" target="N5kg-5Q6fotNva29TXmU-34">
          <mxGeometry relative="1" as="geometry" />
        </mxCell>
        <mxCell id="N5kg-5Q6fotNva29TXmU-28" value="&lt;div style=&quot;&quot;&gt;&lt;span style=&quot;background-color: initial;&quot;&gt;&quot;Instruções:&lt;/span&gt;&lt;/div&gt;&lt;div style=&quot;&quot;&gt;-&amp;nbsp;&amp;nbsp;Digite a expressão na Notação Polonesa Inversa para obter o resultado desta;&lt;/div&gt;&lt;div style=&quot;&quot;&gt;- Digite &quot;Q&quot; para encerrar o programa.&quot;&lt;/div&gt;" style="strokeWidth=2;html=1;shape=mxgraph.flowchart.display;whiteSpace=wrap;fillColor=#dae8fc;strokeColor=#6c8ebf;align=center;" parent="1" vertex="1">
          <mxGeometry x="280" y="240" width="240" height="120" as="geometry" />
        </mxCell>
        <mxCell id="N5kg-5Q6fotNva29TXmU-30" style="edgeStyle=orthogonalEdgeStyle;rounded=0;orthogonalLoop=1;jettySize=auto;html=1;exitX=0.5;exitY=1;exitDx=0;exitDy=0;entryX=0.5;entryY=0;entryDx=0;entryDy=0;entryPerimeter=0;" parent="1" source="N5kg-5Q6fotNva29TXmU-3" target="N5kg-5Q6fotNva29TXmU-28" edge="1">
          <mxGeometry relative="1" as="geometry" />
        </mxCell>
        <mxCell id="N5kg-5Q6fotNva29TXmU-34" value="Loop infinito" style="shape=hexagon;perimeter=hexagonPerimeter2;whiteSpace=wrap;html=1;fixedSize=1;fillColor=#e1d5e7;strokeColor=#9673a6;" parent="1" vertex="1">
          <mxGeometry x="340" y="400" width="120" height="60" as="geometry" />
        </mxCell>
        <mxCell id="N5kg-5Q6fotNva29TXmU-46" value="return 0" style="ellipse;whiteSpace=wrap;html=1;fillColor=#f8cecc;strokeColor=#b85450;" parent="1" vertex="1">
          <mxGeometry x="340" y="1860" width="120" height="60" as="geometry" />
        </mxCell>
        <mxCell id="N5kg-5Q6fotNva29TXmU-61" style="edgeStyle=orthogonalEdgeStyle;rounded=0;orthogonalLoop=1;jettySize=auto;html=1;exitX=0;exitY=0.5;exitDx=0;exitDy=0;exitPerimeter=0;entryX=0;entryY=0.5;entryDx=0;entryDy=0;" parent="1" source="N5kg-5Q6fotNva29TXmU-59" edge="1">
          <mxGeometry relative="1" as="geometry">
            <Array as="points">
              <mxPoint x="620" y="510" />
              <mxPoint x="620" y="180" />
            </Array>
            <mxPoint x="700" y="180" as="targetPoint" />
          </mxGeometry>
        </mxCell>
        <mxCell id="N5kg-5Q6fotNva29TXmU-85" value="&lt;span style=&quot;color: rgb(51, 51, 51);&quot;&gt;Disciplina: Programação Estruturada e Modular&lt;/span&gt;&lt;div style=&quot;color: rgb(51, 51, 51);&quot;&gt;Prof. Carlos Veríssimo&lt;br&gt;&lt;/div&gt;&lt;div style=&quot;color: rgb(51, 51, 51);&quot;&gt;&lt;br&gt;&lt;/div&gt;&lt;div style=&quot;color: rgb(51, 51, 51); text-align: left;&quot;&gt;Objetivo: Diagramação do Código Calculadora HP-12C&lt;/div&gt;&lt;div style=&quot;color: rgb(51, 51, 51); text-align: left;&quot;&gt;Data: 20/09/2024&lt;/div&gt;&lt;div style=&quot;color: rgb(51, 51, 51); text-align: left;&quot;&gt;Autor: Vinicius Leon Melo Tavares&lt;/div&gt;" style="rounded=1;whiteSpace=wrap;html=1;" parent="1" vertex="1">
          <mxGeometry x="-180" y="1330" width="300" height="160" as="geometry" />
        </mxCell>
        <mxCell id="9kBR9iTMv46fXtZOBxt3-3" style="edgeStyle=orthogonalEdgeStyle;rounded=0;orthogonalLoop=1;jettySize=auto;html=1;exitX=0.5;exitY=1;exitDx=0;exitDy=0;entryX=0.5;entryY=0;entryDx=0;entryDy=0;" edge="1" parent="1" source="9kBR9iTMv46fXtZOBxt3-1" target="N5kg-5Q6fotNva29TXmU-17">
          <mxGeometry relative="1" as="geometry" />
        </mxCell>
        <mxCell id="9kBR9iTMv46fXtZOBxt3-1" value="Definição de Tipos:&lt;div&gt;&lt;br&gt;&lt;/div&gt;&lt;div&gt;&lt;div&gt;typedef struct {&lt;/div&gt;&lt;div&gt;&amp;nbsp; &amp;nbsp; int inner[STACK_CAPACITY]&lt;/div&gt;&lt;div&gt;&amp;nbsp; &amp;nbsp; int len&lt;/div&gt;&lt;div&gt;} Stack&lt;/div&gt;&lt;/div&gt;" style="rounded=1;whiteSpace=wrap;html=1;absoluteArcSize=1;arcSize=14;strokeWidth=2;align=left;fillColor=#d5e8d4;strokeColor=#82b366;" vertex="1" parent="1">
          <mxGeometry x="-40" y="320" width="200" height="120" as="geometry" />
        </mxCell>
        <mxCell id="9kBR9iTMv46fXtZOBxt3-11" style="edgeStyle=orthogonalEdgeStyle;rounded=0;orthogonalLoop=1;jettySize=auto;html=1;exitX=0.5;exitY=1;exitDx=0;exitDy=0;entryX=0.5;entryY=0;entryDx=0;entryDy=0;" edge="1" parent="1" source="9kBR9iTMv46fXtZOBxt3-7" target="9kBR9iTMv46fXtZOBxt3-10">
          <mxGeometry relative="1" as="geometry" />
        </mxCell>
        <mxCell id="9kBR9iTMv46fXtZOBxt3-7" value="Texto a ser armazenado&lt;span style=&quot;background-color: initial;&quot;&gt;&amp;nbsp;em expression&lt;/span&gt;" style="html=1;strokeWidth=1;shape=manualInput;whiteSpace=wrap;rounded=1;size=26;arcSize=11;fillColor=#f5f5f5;fontColor=#333333;strokeColor=#666666;" vertex="1" parent="1">
          <mxGeometry x="340" y="495" width="120" height="85" as="geometry" />
        </mxCell>
        <mxCell id="9kBR9iTMv46fXtZOBxt3-8" style="edgeStyle=orthogonalEdgeStyle;rounded=0;orthogonalLoop=1;jettySize=auto;html=1;exitX=0.5;exitY=1;exitDx=0;exitDy=0;entryX=0.498;entryY=0.131;entryDx=0;entryDy=0;entryPerimeter=0;" edge="1" parent="1" source="N5kg-5Q6fotNva29TXmU-34" target="9kBR9iTMv46fXtZOBxt3-7">
          <mxGeometry relative="1" as="geometry">
            <mxPoint x="400" y="500" as="targetPoint" />
          </mxGeometry>
        </mxCell>
        <mxCell id="9kBR9iTMv46fXtZOBxt3-10" value="char* token = strtok(expression, &quot; \n&quot;)" style="rounded=1;whiteSpace=wrap;html=1;absoluteArcSize=1;arcSize=14;strokeWidth=2;align=left;fillColor=#d5e8d4;strokeColor=#82b366;" vertex="1" parent="1">
          <mxGeometry x="280" y="620" width="240" height="40" as="geometry" />
        </mxCell>
        <mxCell id="9kBR9iTMv46fXtZOBxt3-13" style="edgeStyle=orthogonalEdgeStyle;rounded=0;orthogonalLoop=1;jettySize=auto;html=1;exitX=0.5;exitY=1;exitDx=0;exitDy=0;" edge="1" parent="1" source="9kBR9iTMv46fXtZOBxt3-10" target="9kBR9iTMv46fXtZOBxt3-10">
          <mxGeometry relative="1" as="geometry" />
        </mxCell>
        <mxCell id="9kBR9iTMv46fXtZOBxt3-17" style="edgeStyle=orthogonalEdgeStyle;rounded=0;orthogonalLoop=1;jettySize=auto;html=1;exitX=0.5;exitY=1;exitDx=0;exitDy=0;exitPerimeter=0;" edge="1" parent="1" source="9kBR9iTMv46fXtZOBxt3-14">
          <mxGeometry relative="1" as="geometry">
            <mxPoint x="399.7931034482758" y="860" as="targetPoint" />
          </mxGeometry>
        </mxCell>
        <mxCell id="9kBR9iTMv46fXtZOBxt3-18" style="edgeStyle=orthogonalEdgeStyle;rounded=0;orthogonalLoop=1;jettySize=auto;html=1;exitX=1;exitY=0.5;exitDx=0;exitDy=0;exitPerimeter=0;" edge="1" parent="1" source="9kBR9iTMv46fXtZOBxt3-14">
          <mxGeometry relative="1" as="geometry">
            <mxPoint x="499.9999999999998" y="760.344827586207" as="targetPoint" />
          </mxGeometry>
        </mxCell>
        <mxCell id="9kBR9iTMv46fXtZOBxt3-14" value="strcmp(token, &quot;Q&quot;)&lt;div&gt;== 0&lt;/div&gt;" style="strokeWidth=1;html=1;shape=mxgraph.flowchart.decision;whiteSpace=wrap;fillColor=#fff2cc;strokeColor=#d6b656;" vertex="1" parent="1">
          <mxGeometry x="340" y="700" width="120" height="120" as="geometry" />
        </mxCell>
        <mxCell id="9kBR9iTMv46fXtZOBxt3-15" style="edgeStyle=orthogonalEdgeStyle;rounded=0;orthogonalLoop=1;jettySize=auto;html=1;exitX=0.5;exitY=1;exitDx=0;exitDy=0;entryX=0.5;entryY=0;entryDx=0;entryDy=0;entryPerimeter=0;" edge="1" parent="1" source="9kBR9iTMv46fXtZOBxt3-10" target="9kBR9iTMv46fXtZOBxt3-14">
          <mxGeometry relative="1" as="geometry" />
        </mxCell>
        <mxCell id="9kBR9iTMv46fXtZOBxt3-19" value="Quebra do loop" style="strokeWidth=1;html=1;shape=mxgraph.flowchart.terminator;whiteSpace=wrap;fillColor=#FFCCFF;strokeColor=#660066;" vertex="1" parent="1">
          <mxGeometry x="500" y="740" width="100" height="40" as="geometry" />
        </mxCell>
        <mxCell id="9kBR9iTMv46fXtZOBxt3-20" value="SIM" style="text;html=1;align=center;verticalAlign=middle;whiteSpace=wrap;rounded=0;" vertex="1" parent="1">
          <mxGeometry x="440" y="730" width="60" height="30" as="geometry" />
        </mxCell>
        <mxCell id="9kBR9iTMv46fXtZOBxt3-21" value="NÃO" style="text;html=1;align=center;verticalAlign=middle;whiteSpace=wrap;rounded=0;" vertex="1" parent="1">
          <mxGeometry x="390" y="810" width="60" height="30" as="geometry" />
        </mxCell>
        <mxCell id="9kBR9iTMv46fXtZOBxt3-28" style="edgeStyle=orthogonalEdgeStyle;rounded=0;orthogonalLoop=1;jettySize=auto;html=1;exitX=0.5;exitY=1;exitDx=0;exitDy=0;entryX=0.5;entryY=0;entryDx=0;entryDy=0;" edge="1" parent="1" source="9kBR9iTMv46fXtZOBxt3-24" target="9kBR9iTMv46fXtZOBxt3-26">
          <mxGeometry relative="1" as="geometry" />
        </mxCell>
        <mxCell id="9kBR9iTMv46fXtZOBxt3-58" style="edgeStyle=orthogonalEdgeStyle;rounded=0;orthogonalLoop=1;jettySize=auto;html=1;exitX=1;exitY=0.5;exitDx=0;exitDy=0;entryX=0;entryY=0.5;entryDx=0;entryDy=0;" edge="1" parent="1" source="9kBR9iTMv46fXtZOBxt3-24" target="N5kg-5Q6fotNva29TXmU-34">
          <mxGeometry relative="1" as="geometry">
            <Array as="points">
              <mxPoint x="700" y="890" />
              <mxPoint x="700" y="1680" />
              <mxPoint x="240" y="1680" />
              <mxPoint x="240" y="430" />
            </Array>
          </mxGeometry>
        </mxCell>
        <mxCell id="9kBR9iTMv46fXtZOBxt3-24" value="token != NULL;&lt;div&gt;token = strtok(NULL, &quot; \n&quot;)&lt;br&gt;&lt;/div&gt;" style="shape=hexagon;perimeter=hexagonPerimeter2;whiteSpace=wrap;html=1;fixedSize=1;fillColor=#e1d5e7;strokeColor=#9673a6;" vertex="1" parent="1">
          <mxGeometry x="320" y="860" width="160" height="60" as="geometry" />
        </mxCell>
        <mxCell id="9kBR9iTMv46fXtZOBxt3-26" value="int status =&lt;div&gt;evaluateToken(&amp;amp;stack, token)&lt;/div&gt;" style="shape=process;whiteSpace=wrap;html=1;backgroundOutline=1;fillColor=#ffe6cc;strokeColor=#d79b00;" vertex="1" parent="1">
          <mxGeometry x="320" y="960" width="160" height="60" as="geometry" />
        </mxCell>
        <mxCell id="9kBR9iTMv46fXtZOBxt3-27" value="status" style="strokeWidth=1;html=1;shape=mxgraph.flowchart.decision;whiteSpace=wrap;fillColor=#fff2cc;strokeColor=#d6b656;" vertex="1" parent="1">
          <mxGeometry x="360" y="1060" width="80" height="80" as="geometry" />
        </mxCell>
        <mxCell id="9kBR9iTMv46fXtZOBxt3-31" value="1" style="whiteSpace=wrap;html=1;shape=partialRectangle;top=0;left=0;bottom=1;right=0;points=[[0,1],[1,1]];fillColor=none;align=center;verticalAlign=bottom;routingCenterY=0.5;snapToPoint=1;recursiveResize=0;autosize=1;treeFolding=1;treeMoving=1;newEdgeStyle={&quot;edgeStyle&quot;:&quot;entityRelationEdgeStyle&quot;,&quot;startArrow&quot;:&quot;none&quot;,&quot;endArrow&quot;:&quot;none&quot;,&quot;segment&quot;:10,&quot;curved&quot;:1,&quot;sourcePerimeterSpacing&quot;:0,&quot;targetPerimeterSpacing&quot;:0};" vertex="1" parent="1">
          <mxGeometry x="420" y="1150" width="40" height="30" as="geometry" />
        </mxCell>
        <mxCell id="9kBR9iTMv46fXtZOBxt3-32" value="" style="edgeStyle=entityRelationEdgeStyle;startArrow=none;endArrow=none;segment=10;curved=1;sourcePerimeterSpacing=0;targetPerimeterSpacing=0;rounded=0;" edge="1" target="9kBR9iTMv46fXtZOBxt3-31" parent="1">
          <mxGeometry relative="1" as="geometry">
            <mxPoint x="400" y="1140" as="sourcePoint" />
          </mxGeometry>
        </mxCell>
        <mxCell id="9kBR9iTMv46fXtZOBxt3-34" value="2" style="whiteSpace=wrap;html=1;shape=partialRectangle;top=0;left=0;bottom=1;right=0;points=[[0,1],[1,1]];fillColor=none;align=center;verticalAlign=bottom;routingCenterY=0.5;snapToPoint=1;recursiveResize=0;autosize=1;treeFolding=1;treeMoving=1;newEdgeStyle={&quot;edgeStyle&quot;:&quot;entityRelationEdgeStyle&quot;,&quot;startArrow&quot;:&quot;none&quot;,&quot;endArrow&quot;:&quot;none&quot;,&quot;segment&quot;:10,&quot;curved&quot;:1,&quot;sourcePerimeterSpacing&quot;:0,&quot;targetPerimeterSpacing&quot;:0};" vertex="1" parent="1">
          <mxGeometry x="420" y="1250" width="40" height="30" as="geometry" />
        </mxCell>
        <mxCell id="9kBR9iTMv46fXtZOBxt3-36" style="edgeStyle=entityRelationEdgeStyle;rounded=0;orthogonalLoop=1;jettySize=auto;html=1;startArrow=none;endArrow=none;segment=10;curved=1;sourcePerimeterSpacing=0;targetPerimeterSpacing=0;exitX=0;exitY=1;exitDx=0;exitDy=0;entryX=0.5;entryY=1;entryDx=0;entryDy=0;entryPerimeter=0;" edge="1" parent="1" source="9kBR9iTMv46fXtZOBxt3-34" target="9kBR9iTMv46fXtZOBxt3-27">
          <mxGeometry relative="1" as="geometry" />
        </mxCell>
        <mxCell id="9kBR9iTMv46fXtZOBxt3-37" value="3" style="whiteSpace=wrap;html=1;shape=partialRectangle;top=0;left=0;bottom=1;right=0;points=[[0,1],[1,1]];fillColor=none;align=center;verticalAlign=bottom;routingCenterY=0.5;snapToPoint=1;recursiveResize=0;autosize=1;treeFolding=1;treeMoving=1;newEdgeStyle={&quot;edgeStyle&quot;:&quot;entityRelationEdgeStyle&quot;,&quot;startArrow&quot;:&quot;none&quot;,&quot;endArrow&quot;:&quot;none&quot;,&quot;segment&quot;:10,&quot;curved&quot;:1,&quot;sourcePerimeterSpacing&quot;:0,&quot;targetPerimeterSpacing&quot;:0};" vertex="1" parent="1">
          <mxGeometry x="420" y="1350" width="40" height="30" as="geometry" />
        </mxCell>
        <mxCell id="9kBR9iTMv46fXtZOBxt3-38" value="" style="edgeStyle=entityRelationEdgeStyle;startArrow=none;endArrow=none;segment=10;curved=1;sourcePerimeterSpacing=0;targetPerimeterSpacing=0;rounded=0;exitX=0.5;exitY=1;exitDx=0;exitDy=0;exitPerimeter=0;" edge="1" target="9kBR9iTMv46fXtZOBxt3-37" parent="1" source="9kBR9iTMv46fXtZOBxt3-27">
          <mxGeometry relative="1" as="geometry">
            <mxPoint x="400" y="1320" as="sourcePoint" />
          </mxGeometry>
        </mxCell>
        <mxCell id="9kBR9iTMv46fXtZOBxt3-39" value="4" style="whiteSpace=wrap;html=1;shape=partialRectangle;top=0;left=0;bottom=1;right=0;points=[[0,1],[1,1]];fillColor=none;align=center;verticalAlign=bottom;routingCenterY=0.5;snapToPoint=1;recursiveResize=0;autosize=1;treeFolding=1;treeMoving=1;newEdgeStyle={&quot;edgeStyle&quot;:&quot;entityRelationEdgeStyle&quot;,&quot;startArrow&quot;:&quot;none&quot;,&quot;endArrow&quot;:&quot;none&quot;,&quot;segment&quot;:10,&quot;curved&quot;:1,&quot;sourcePerimeterSpacing&quot;:0,&quot;targetPerimeterSpacing&quot;:0};" vertex="1" parent="1">
          <mxGeometry x="420" y="1450" width="40" height="30" as="geometry" />
        </mxCell>
        <mxCell id="9kBR9iTMv46fXtZOBxt3-40" value="" style="edgeStyle=entityRelationEdgeStyle;startArrow=none;endArrow=none;segment=10;curved=1;sourcePerimeterSpacing=0;targetPerimeterSpacing=0;rounded=0;exitX=0.5;exitY=1;exitDx=0;exitDy=0;exitPerimeter=0;" edge="1" target="9kBR9iTMv46fXtZOBxt3-39" parent="1" source="9kBR9iTMv46fXtZOBxt3-27">
          <mxGeometry relative="1" as="geometry">
            <mxPoint x="400" y="1380" as="sourcePoint" />
          </mxGeometry>
        </mxCell>
        <mxCell id="9kBR9iTMv46fXtZOBxt3-55" style="edgeStyle=entityRelationEdgeStyle;rounded=0;orthogonalLoop=1;jettySize=auto;html=1;startArrow=none;endArrow=none;segment=10;curved=1;sourcePerimeterSpacing=0;targetPerimeterSpacing=0;exitX=1;exitY=1;exitDx=0;exitDy=0;" edge="1" parent="1" source="9kBR9iTMv46fXtZOBxt3-41">
          <mxGeometry relative="1" as="geometry">
            <mxPoint x="660" y="1580.2857142857142" as="targetPoint" />
          </mxGeometry>
        </mxCell>
        <mxCell id="9kBR9iTMv46fXtZOBxt3-41" value="Outros casos" style="whiteSpace=wrap;html=1;shape=partialRectangle;top=0;left=0;bottom=1;right=0;points=[[0,1],[1,1]];fillColor=none;align=center;verticalAlign=bottom;routingCenterY=0.5;snapToPoint=1;recursiveResize=0;autosize=1;treeFolding=1;treeMoving=1;newEdgeStyle={&quot;edgeStyle&quot;:&quot;entityRelationEdgeStyle&quot;,&quot;startArrow&quot;:&quot;none&quot;,&quot;endArrow&quot;:&quot;none&quot;,&quot;segment&quot;:10,&quot;curved&quot;:1,&quot;sourcePerimeterSpacing&quot;:0,&quot;targetPerimeterSpacing&quot;:0};" vertex="1" parent="1">
          <mxGeometry x="420" y="1550" width="80" height="30" as="geometry" />
        </mxCell>
        <mxCell id="9kBR9iTMv46fXtZOBxt3-42" value="" style="edgeStyle=entityRelationEdgeStyle;startArrow=none;endArrow=none;segment=10;curved=1;sourcePerimeterSpacing=0;targetPerimeterSpacing=0;rounded=0;exitX=0.5;exitY=1;exitDx=0;exitDy=0;exitPerimeter=0;" edge="1" target="9kBR9iTMv46fXtZOBxt3-41" parent="1" source="9kBR9iTMv46fXtZOBxt3-27">
          <mxGeometry relative="1" as="geometry">
            <mxPoint x="400" y="1440" as="sourcePoint" />
          </mxGeometry>
        </mxCell>
        <mxCell id="9kBR9iTMv46fXtZOBxt3-50" style="edgeStyle=orthogonalEdgeStyle;rounded=0;orthogonalLoop=1;jettySize=auto;html=1;exitX=1;exitY=0.5;exitDx=0;exitDy=0;exitPerimeter=0;entryX=0;entryY=0.5;entryDx=0;entryDy=0;" edge="1" parent="1" source="9kBR9iTMv46fXtZOBxt3-44" target="9kBR9iTMv46fXtZOBxt3-24">
          <mxGeometry relative="1" as="geometry">
            <Array as="points">
              <mxPoint x="660" y="1180" />
              <mxPoint x="660" y="1640" />
              <mxPoint x="280" y="1640" />
              <mxPoint x="280" y="890" />
            </Array>
          </mxGeometry>
        </mxCell>
        <mxCell id="9kBR9iTMv46fXtZOBxt3-44" value="Último valor da stack" style="strokeWidth=2;html=1;shape=mxgraph.flowchart.display;whiteSpace=wrap;fillColor=#dae8fc;strokeColor=#6c8ebf;" vertex="1" parent="1">
          <mxGeometry x="460" y="1160" width="160" height="40" as="geometry" />
        </mxCell>
        <mxCell id="9kBR9iTMv46fXtZOBxt3-51" style="edgeStyle=orthogonalEdgeStyle;rounded=0;orthogonalLoop=1;jettySize=auto;html=1;exitX=1;exitY=0.5;exitDx=0;exitDy=0;exitPerimeter=0;entryX=0;entryY=0.5;entryDx=0;entryDy=0;" edge="1" parent="1" source="9kBR9iTMv46fXtZOBxt3-45" target="9kBR9iTMv46fXtZOBxt3-24">
          <mxGeometry relative="1" as="geometry">
            <Array as="points">
              <mxPoint x="660" y="1280" />
              <mxPoint x="660" y="1640" />
              <mxPoint x="280" y="1640" />
              <mxPoint x="280" y="890" />
            </Array>
          </mxGeometry>
        </mxCell>
        <mxCell id="9kBR9iTMv46fXtZOBxt3-45" value="token&amp;nbsp;&lt;span style=&quot;background-color: initial;&quot;&gt;&quot; não é&amp;nbsp;&lt;/span&gt;&lt;div&gt;um token válido.&quot;&lt;/div&gt;" style="strokeWidth=2;html=1;shape=mxgraph.flowchart.display;whiteSpace=wrap;fillColor=#dae8fc;strokeColor=#6c8ebf;" vertex="1" parent="1">
          <mxGeometry x="460" y="1260" width="160" height="40" as="geometry" />
        </mxCell>
        <mxCell id="9kBR9iTMv46fXtZOBxt3-52" style="edgeStyle=orthogonalEdgeStyle;rounded=0;orthogonalLoop=1;jettySize=auto;html=1;exitX=1;exitY=0.5;exitDx=0;exitDy=0;exitPerimeter=0;entryX=0;entryY=0.5;entryDx=0;entryDy=0;" edge="1" parent="1" source="9kBR9iTMv46fXtZOBxt3-46" target="9kBR9iTMv46fXtZOBxt3-24">
          <mxGeometry relative="1" as="geometry">
            <Array as="points">
              <mxPoint x="660" y="1380" />
              <mxPoint x="660" y="1640" />
              <mxPoint x="280" y="1640" />
              <mxPoint x="280" y="890" />
            </Array>
          </mxGeometry>
        </mxCell>
        <mxCell id="9kBR9iTMv46fXtZOBxt3-46" value="&quot;Não&amp;nbsp;&lt;span style=&quot;background-color: initial;&quot;&gt;foi&amp;nbsp;&lt;/span&gt;&lt;span style=&quot;background-color: initial;&quot;&gt;possível&lt;/span&gt;&lt;div&gt;empilhar &quot; token &quot;, e&amp;nbsp;&lt;/div&gt;&lt;div&gt;portanto o processo&lt;/div&gt;&lt;div&gt;foi interrompido&quot;&lt;/div&gt;" style="strokeWidth=2;html=1;shape=mxgraph.flowchart.display;whiteSpace=wrap;fillColor=#dae8fc;strokeColor=#6c8ebf;" vertex="1" parent="1">
          <mxGeometry x="460" y="1340" width="160" height="80" as="geometry" />
        </mxCell>
        <mxCell id="9kBR9iTMv46fXtZOBxt3-53" style="edgeStyle=orthogonalEdgeStyle;rounded=0;orthogonalLoop=1;jettySize=auto;html=1;exitX=1;exitY=0.5;exitDx=0;exitDy=0;exitPerimeter=0;entryX=0;entryY=0.5;entryDx=0;entryDy=0;" edge="1" parent="1" source="9kBR9iTMv46fXtZOBxt3-47" target="9kBR9iTMv46fXtZOBxt3-24">
          <mxGeometry relative="1" as="geometry">
            <Array as="points">
              <mxPoint x="660" y="1480" />
              <mxPoint x="660" y="1640" />
              <mxPoint x="280" y="1640" />
              <mxPoint x="280" y="890" />
            </Array>
          </mxGeometry>
        </mxCell>
        <mxCell id="9kBR9iTMv46fXtZOBxt3-47" value="&quot;Não é possível&lt;div&gt;dividir&amp;nbsp;&lt;span style=&quot;background-color: initial;&quot;&gt;por zero.&lt;/span&gt;&lt;span style=&quot;background-color: initial;&quot;&gt;&quot;&lt;/span&gt;&lt;/div&gt;" style="strokeWidth=2;html=1;shape=mxgraph.flowchart.display;whiteSpace=wrap;fillColor=#dae8fc;strokeColor=#6c8ebf;" vertex="1" parent="1">
          <mxGeometry x="460" y="1460" width="160" height="40" as="geometry" />
        </mxCell>
        <mxCell id="9kBR9iTMv46fXtZOBxt3-56" style="edgeStyle=orthogonalEdgeStyle;rounded=0;orthogonalLoop=1;jettySize=auto;html=1;exitX=0.5;exitY=1;exitDx=0;exitDy=0;entryX=0.5;entryY=0;entryDx=0;entryDy=0;entryPerimeter=0;" edge="1" parent="1" source="9kBR9iTMv46fXtZOBxt3-26" target="9kBR9iTMv46fXtZOBxt3-27">
          <mxGeometry relative="1" as="geometry" />
        </mxCell>
        <mxCell id="9kBR9iTMv46fXtZOBxt3-62" style="edgeStyle=orthogonalEdgeStyle;rounded=0;orthogonalLoop=1;jettySize=auto;html=1;exitX=0.5;exitY=1;exitDx=0;exitDy=0;exitPerimeter=0;" edge="1" parent="1" source="9kBR9iTMv46fXtZOBxt3-60">
          <mxGeometry relative="1" as="geometry">
            <mxPoint x="400" y="1860" as="targetPoint" />
          </mxGeometry>
        </mxCell>
        <mxCell id="9kBR9iTMv46fXtZOBxt3-60" value="&quot;Obrigado por usar nossa Calculadora Fatec-HP12c&quot;" style="strokeWidth=2;html=1;shape=mxgraph.flowchart.display;whiteSpace=wrap;fillColor=#dae8fc;strokeColor=#6c8ebf;" vertex="1" parent="1">
          <mxGeometry x="300" y="1760" width="200" height="60" as="geometry" />
        </mxCell>
        <mxCell id="9kBR9iTMv46fXtZOBxt3-61" style="edgeStyle=orthogonalEdgeStyle;rounded=0;orthogonalLoop=1;jettySize=auto;html=1;exitX=1;exitY=0.5;exitDx=0;exitDy=0;entryX=0.5;entryY=0;entryDx=0;entryDy=0;entryPerimeter=0;" edge="1" parent="1" source="N5kg-5Q6fotNva29TXmU-34" target="9kBR9iTMv46fXtZOBxt3-60">
          <mxGeometry relative="1" as="geometry">
            <Array as="points">
              <mxPoint x="740" y="430" />
              <mxPoint x="740" y="1720" />
              <mxPoint x="400" y="1720" />
            </Array>
          </mxGeometry>
        </mxCell>
        <mxCell id="9kBR9iTMv46fXtZOBxt3-65" style="edgeStyle=orthogonalEdgeStyle;rounded=0;orthogonalLoop=1;jettySize=auto;html=1;exitX=0.5;exitY=1;exitDx=0;exitDy=0;entryX=0.5;entryY=0;entryDx=0;entryDy=0;" edge="1" parent="1" source="9kBR9iTMv46fXtZOBxt3-63" target="9kBR9iTMv46fXtZOBxt3-64">
          <mxGeometry relative="1" as="geometry" />
        </mxCell>
        <mxCell id="9kBR9iTMv46fXtZOBxt3-63" value="int evaluateToken(Stack* stack, char* token)" style="ellipse;whiteSpace=wrap;html=1;fillColor=#f8cecc;strokeColor=#b85450;" vertex="1" parent="1">
          <mxGeometry x="840" y="40" width="160" height="60" as="geometry" />
        </mxCell>
        <mxCell id="9kBR9iTMv46fXtZOBxt3-68" style="edgeStyle=orthogonalEdgeStyle;rounded=0;orthogonalLoop=1;jettySize=auto;html=1;exitX=0.5;exitY=1;exitDx=0;exitDy=0;" edge="1" parent="1" source="9kBR9iTMv46fXtZOBxt3-64" target="9kBR9iTMv46fXtZOBxt3-67">
          <mxGeometry relative="1" as="geometry" />
        </mxCell>
        <mxCell id="9kBR9iTMv46fXtZOBxt3-64" value="&lt;div&gt;int parsedInt;&lt;/div&gt;" style="rounded=1;whiteSpace=wrap;html=1;absoluteArcSize=1;arcSize=14;strokeWidth=2;align=left;fillColor=#d5e8d4;strokeColor=#82b366;" vertex="1" parent="1">
          <mxGeometry x="880" y="140" width="80" height="40" as="geometry" />
        </mxCell>
        <mxCell id="9kBR9iTMv46fXtZOBxt3-67" value="int parseStatus =&amp;nbsp;parseInt(token, &amp;amp;parsedInt)" style="shape=process;whiteSpace=wrap;html=1;backgroundOutline=1;fillColor=#ffe6cc;strokeColor=#d79b00;" vertex="1" parent="1">
          <mxGeometry x="860" y="220" width="120" height="60" as="geometry" />
        </mxCell>
        <mxCell id="9kBR9iTMv46fXtZOBxt3-69" value="parseStatus == 0" style="strokeWidth=1;html=1;shape=mxgraph.flowchart.decision;whiteSpace=wrap;fillColor=#fff2cc;strokeColor=#d6b656;" vertex="1" parent="1">
          <mxGeometry x="860" y="320" width="120" height="120" as="geometry" />
        </mxCell>
        <mxCell id="9kBR9iTMv46fXtZOBxt3-70" style="edgeStyle=orthogonalEdgeStyle;rounded=0;orthogonalLoop=1;jettySize=auto;html=1;exitX=0.5;exitY=1;exitDx=0;exitDy=0;entryX=0.5;entryY=0;entryDx=0;entryDy=0;entryPerimeter=0;" edge="1" parent="1" source="9kBR9iTMv46fXtZOBxt3-67" target="9kBR9iTMv46fXtZOBxt3-69">
          <mxGeometry relative="1" as="geometry" />
        </mxCell>
        <mxCell id="9kBR9iTMv46fXtZOBxt3-73" style="edgeStyle=orthogonalEdgeStyle;rounded=0;orthogonalLoop=1;jettySize=auto;html=1;exitX=1;exitY=0.5;exitDx=0;exitDy=0;exitPerimeter=0;entryX=0;entryY=0.5;entryDx=0;entryDy=0;entryPerimeter=0;" edge="1" parent="1" source="9kBR9iTMv46fXtZOBxt3-69">
          <mxGeometry relative="1" as="geometry">
            <mxPoint x="1020.0000000000005" y="380" as="targetPoint" />
          </mxGeometry>
        </mxCell>
        <mxCell id="9kBR9iTMv46fXtZOBxt3-74" value="int pushStatus =&amp;nbsp;stackPush(stack, parsedInt)" style="shape=process;whiteSpace=wrap;html=1;backgroundOutline=1;fillColor=#ffe6cc;strokeColor=#d79b00;" vertex="1" parent="1">
          <mxGeometry x="1020" y="350" width="120" height="60" as="geometry" />
        </mxCell>
        <mxCell id="9kBR9iTMv46fXtZOBxt3-77" value="pushStatus == 0" style="strokeWidth=1;html=1;shape=mxgraph.flowchart.decision;whiteSpace=wrap;fillColor=#fff2cc;strokeColor=#d6b656;" vertex="1" parent="1">
          <mxGeometry x="1181" y="320" width="120" height="120" as="geometry" />
        </mxCell>
        <mxCell id="9kBR9iTMv46fXtZOBxt3-78" style="edgeStyle=orthogonalEdgeStyle;rounded=0;orthogonalLoop=1;jettySize=auto;html=1;exitX=1;exitY=0.5;exitDx=0;exitDy=0;entryX=0;entryY=0.5;entryDx=0;entryDy=0;entryPerimeter=0;" edge="1" parent="1" source="9kBR9iTMv46fXtZOBxt3-74" target="9kBR9iTMv46fXtZOBxt3-77">
          <mxGeometry relative="1" as="geometry" />
        </mxCell>
        <mxCell id="9kBR9iTMv46fXtZOBxt3-79" value="return 0" style="strokeWidth=1;html=1;shape=mxgraph.flowchart.terminator;whiteSpace=wrap;fillColor=#FFCCFF;strokeColor=#660066;" vertex="1" parent="1">
          <mxGeometry x="1340" y="360" width="80" height="40" as="geometry" />
        </mxCell>
        <mxCell id="9kBR9iTMv46fXtZOBxt3-80" style="edgeStyle=orthogonalEdgeStyle;rounded=0;orthogonalLoop=1;jettySize=auto;html=1;exitX=1;exitY=0.5;exitDx=0;exitDy=0;exitPerimeter=0;entryX=0;entryY=0.5;entryDx=0;entryDy=0;entryPerimeter=0;" edge="1" parent="1" source="9kBR9iTMv46fXtZOBxt3-77" target="9kBR9iTMv46fXtZOBxt3-79">
          <mxGeometry relative="1" as="geometry" />
        </mxCell>
        <mxCell id="9kBR9iTMv46fXtZOBxt3-81" value="return 3" style="strokeWidth=1;html=1;shape=mxgraph.flowchart.terminator;whiteSpace=wrap;fillColor=#FFCCFF;strokeColor=#660066;" vertex="1" parent="1">
          <mxGeometry x="1200" y="480" width="80" height="40" as="geometry" />
        </mxCell>
        <mxCell id="9kBR9iTMv46fXtZOBxt3-82" style="edgeStyle=orthogonalEdgeStyle;rounded=0;orthogonalLoop=1;jettySize=auto;html=1;exitX=0.5;exitY=1;exitDx=0;exitDy=0;exitPerimeter=0;entryX=0.5;entryY=0;entryDx=0;entryDy=0;entryPerimeter=0;" edge="1" parent="1" source="9kBR9iTMv46fXtZOBxt3-77" target="9kBR9iTMv46fXtZOBxt3-81">
          <mxGeometry relative="1" as="geometry" />
        </mxCell>
        <mxCell id="9kBR9iTMv46fXtZOBxt3-83" value="strlen(token) != 1" style="strokeWidth=1;html=1;shape=mxgraph.flowchart.decision;whiteSpace=wrap;fillColor=#fff2cc;strokeColor=#d6b656;" vertex="1" parent="1">
          <mxGeometry x="860" y="480" width="120" height="120" as="geometry" />
        </mxCell>
        <mxCell id="9kBR9iTMv46fXtZOBxt3-84" style="edgeStyle=orthogonalEdgeStyle;rounded=0;orthogonalLoop=1;jettySize=auto;html=1;exitX=0.5;exitY=1;exitDx=0;exitDy=0;exitPerimeter=0;entryX=0.5;entryY=0;entryDx=0;entryDy=0;entryPerimeter=0;" edge="1" parent="1" source="9kBR9iTMv46fXtZOBxt3-69" target="9kBR9iTMv46fXtZOBxt3-83">
          <mxGeometry relative="1" as="geometry" />
        </mxCell>
        <mxCell id="9kBR9iTMv46fXtZOBxt3-85" value="return 2" style="strokeWidth=1;html=1;shape=mxgraph.flowchart.terminator;whiteSpace=wrap;fillColor=#FFCCFF;strokeColor=#660066;" vertex="1" parent="1">
          <mxGeometry x="1020" y="520" width="80" height="40" as="geometry" />
        </mxCell>
        <mxCell id="9kBR9iTMv46fXtZOBxt3-87" style="edgeStyle=orthogonalEdgeStyle;rounded=0;orthogonalLoop=1;jettySize=auto;html=1;exitX=1;exitY=0.5;exitDx=0;exitDy=0;exitPerimeter=0;entryX=0;entryY=0.5;entryDx=0;entryDy=0;entryPerimeter=0;" edge="1" parent="1" source="9kBR9iTMv46fXtZOBxt3-83" target="9kBR9iTMv46fXtZOBxt3-85">
          <mxGeometry relative="1" as="geometry" />
        </mxCell>
        <mxCell id="9kBR9iTMv46fXtZOBxt3-88" value="SIM" style="text;html=1;align=center;verticalAlign=middle;whiteSpace=wrap;rounded=0;" vertex="1" parent="1">
          <mxGeometry x="960" y="350" width="60" height="30" as="geometry" />
        </mxCell>
        <mxCell id="9kBR9iTMv46fXtZOBxt3-89" value="SIM" style="text;html=1;align=center;verticalAlign=middle;whiteSpace=wrap;rounded=0;" vertex="1" parent="1">
          <mxGeometry x="1280" y="350" width="60" height="30" as="geometry" />
        </mxCell>
        <mxCell id="9kBR9iTMv46fXtZOBxt3-90" value="NÃO" style="text;html=1;align=center;verticalAlign=middle;whiteSpace=wrap;rounded=0;" vertex="1" parent="1">
          <mxGeometry x="1230" y="430" width="60" height="30" as="geometry" />
        </mxCell>
        <mxCell id="9kBR9iTMv46fXtZOBxt3-91" value="NÃO" style="text;html=1;align=center;verticalAlign=middle;whiteSpace=wrap;rounded=0;" vertex="1" parent="1">
          <mxGeometry x="910" y="430" width="60" height="30" as="geometry" />
        </mxCell>
        <mxCell id="9kBR9iTMv46fXtZOBxt3-92" value="SIM" style="text;html=1;align=center;verticalAlign=middle;whiteSpace=wrap;rounded=0;" vertex="1" parent="1">
          <mxGeometry x="960" y="510" width="60" height="30" as="geometry" />
        </mxCell>
        <mxCell id="9kBR9iTMv46fXtZOBxt3-95" style="edgeStyle=orthogonalEdgeStyle;rounded=0;orthogonalLoop=1;jettySize=auto;html=1;exitX=0;exitY=0;exitDx=0;exitDy=0;entryX=0.5;entryY=0;entryDx=0;entryDy=0;" edge="1" parent="1" source="9kBR9iTMv46fXtZOBxt3-93" target="9kBR9iTMv46fXtZOBxt3-94">
          <mxGeometry relative="1" as="geometry">
            <Array as="points">
              <mxPoint x="920" y="600" />
              <mxPoint x="920" y="600" />
            </Array>
          </mxGeometry>
        </mxCell>
        <mxCell id="9kBR9iTMv46fXtZOBxt3-93" value="NÃO" style="text;html=1;align=center;verticalAlign=middle;whiteSpace=wrap;rounded=0;" vertex="1" parent="1">
          <mxGeometry x="920" y="600" width="40" height="25" as="geometry" />
        </mxCell>
        <mxCell id="9kBR9iTMv46fXtZOBxt3-94" value="&lt;div&gt;int result, operando1, operando2&lt;/div&gt;" style="rounded=1;whiteSpace=wrap;html=1;absoluteArcSize=1;arcSize=14;strokeWidth=2;align=left;fillColor=#d5e8d4;strokeColor=#82b366;" vertex="1" parent="1">
          <mxGeometry x="860" y="640" width="120" height="40" as="geometry" />
        </mxCell>
        <mxCell id="9kBR9iTMv46fXtZOBxt3-96" value="strcmp(token, &quot;Q&quot;)&lt;div&gt;== 0&lt;/div&gt;" style="strokeWidth=1;html=1;shape=mxgraph.flowchart.decision;whiteSpace=wrap;fillColor=#fff2cc;strokeColor=#d6b656;" vertex="1" parent="1">
          <mxGeometry x="860" y="720" width="120" height="120" as="geometry" />
        </mxCell>
      </root>
    </mxGraphModel>
  </diagram>
</mxfile>
